<mxfile host="app.diagrams.net" agent="Mozilla/5.0 (Macintosh; Intel Mac OS X 10_15_7) AppleWebKit/537.36 (KHTML, like Gecko) Chrome/128.0.0.0 Safari/537.36" version="24.7.14">
  <diagram name="Page-1" id="5UMkAzWUIxxLxTI6kOtt">
    <mxGraphModel dx="1824" dy="795" grid="1" gridSize="10" guides="1" tooltips="1" connect="1" arrows="1" fold="1" page="1" pageScale="1" pageWidth="827" pageHeight="1169" math="0" shadow="0">
      <root>
        <mxCell id="0" />
        <mxCell id="1" parent="0" />
        <mxCell id="WEq2ML7rdB3onKfHmnQE-3" style="edgeStyle=orthogonalEdgeStyle;rounded=0;orthogonalLoop=1;jettySize=auto;html=1;" parent="1" source="bEkGnUCjJTWDH3iZoQyt-1" target="bEkGnUCjJTWDH3iZoQyt-29" edge="1">
          <mxGeometry relative="1" as="geometry">
            <Array as="points">
              <mxPoint x="150" y="340" />
              <mxPoint x="300" y="340" />
            </Array>
          </mxGeometry>
        </mxCell>
        <mxCell id="bEkGnUCjJTWDH3iZoQyt-1" value="Article in Markdown" style="rounded=0;whiteSpace=wrap;html=1;" parent="1" vertex="1">
          <mxGeometry x="80" y="200" width="120" height="80" as="geometry" />
        </mxCell>
        <mxCell id="bEkGnUCjJTWDH3iZoQyt-27" style="edgeStyle=orthogonalEdgeStyle;rounded=0;orthogonalLoop=1;jettySize=auto;html=1;" parent="1" edge="1">
          <mxGeometry relative="1" as="geometry">
            <mxPoint x="580" y="80" as="sourcePoint" />
          </mxGeometry>
        </mxCell>
        <mxCell id="bEkGnUCjJTWDH3iZoQyt-28" style="edgeStyle=orthogonalEdgeStyle;rounded=0;orthogonalLoop=1;jettySize=auto;html=1;" parent="1" edge="1">
          <mxGeometry relative="1" as="geometry">
            <mxPoint x="580" y="80" as="sourcePoint" />
          </mxGeometry>
        </mxCell>
        <mxCell id="o-cLvfTO-st9jqt9Uvxf-8" style="edgeStyle=orthogonalEdgeStyle;rounded=0;orthogonalLoop=1;jettySize=auto;html=1;" edge="1" parent="1" source="bEkGnUCjJTWDH3iZoQyt-29" target="WEq2ML7rdB3onKfHmnQE-9">
          <mxGeometry relative="1" as="geometry" />
        </mxCell>
        <mxCell id="o-cLvfTO-st9jqt9Uvxf-9" style="edgeStyle=orthogonalEdgeStyle;rounded=0;orthogonalLoop=1;jettySize=auto;html=1;" edge="1" parent="1" source="bEkGnUCjJTWDH3iZoQyt-29" target="WEq2ML7rdB3onKfHmnQE-10">
          <mxGeometry relative="1" as="geometry" />
        </mxCell>
        <mxCell id="o-cLvfTO-st9jqt9Uvxf-10" style="edgeStyle=orthogonalEdgeStyle;rounded=0;orthogonalLoop=1;jettySize=auto;html=1;" edge="1" parent="1" source="bEkGnUCjJTWDH3iZoQyt-29" target="o-cLvfTO-st9jqt9Uvxf-7">
          <mxGeometry relative="1" as="geometry" />
        </mxCell>
        <mxCell id="bEkGnUCjJTWDH3iZoQyt-29" value="Document&lt;div&gt;Processing Component&lt;/div&gt;" style="rounded=1;whiteSpace=wrap;html=1;" parent="1" vertex="1">
          <mxGeometry x="240" y="390" width="120" height="80" as="geometry" />
        </mxCell>
        <mxCell id="bEkGnUCjJTWDH3iZoQyt-77" style="edgeStyle=orthogonalEdgeStyle;rounded=0;orthogonalLoop=1;jettySize=auto;html=1;" parent="1" source="bEkGnUCjJTWDH3iZoQyt-75" target="bEkGnUCjJTWDH3iZoQyt-29" edge="1">
          <mxGeometry relative="1" as="geometry" />
        </mxCell>
        <mxCell id="bEkGnUCjJTWDH3iZoQyt-75" value="Article in Markdown" style="rounded=0;whiteSpace=wrap;html=1;" parent="1" vertex="1">
          <mxGeometry x="240" y="200" width="120" height="80" as="geometry" />
        </mxCell>
        <mxCell id="WEq2ML7rdB3onKfHmnQE-2" style="edgeStyle=orthogonalEdgeStyle;rounded=0;orthogonalLoop=1;jettySize=auto;html=1;" parent="1" source="bEkGnUCjJTWDH3iZoQyt-76" target="bEkGnUCjJTWDH3iZoQyt-29" edge="1">
          <mxGeometry relative="1" as="geometry">
            <Array as="points">
              <mxPoint x="460" y="340" />
              <mxPoint x="300" y="340" />
            </Array>
          </mxGeometry>
        </mxCell>
        <mxCell id="bEkGnUCjJTWDH3iZoQyt-76" value="Article in Markdown" style="rounded=0;whiteSpace=wrap;html=1;" parent="1" vertex="1">
          <mxGeometry x="400" y="200" width="120" height="80" as="geometry" />
        </mxCell>
        <mxCell id="WEq2ML7rdB3onKfHmnQE-9" value="Full Article in Markdown" style="rounded=0;whiteSpace=wrap;html=1;" parent="1" vertex="1">
          <mxGeometry x="80" y="520" width="120" height="120" as="geometry" />
        </mxCell>
        <mxCell id="WEq2ML7rdB3onKfHmnQE-10" value="Full Text Chunks&lt;br&gt;&lt;table&gt;&lt;tbody&gt;&lt;tr&gt;&lt;td&gt;300–500 words (1-2 paragraphs)&lt;br&gt;Based on natural sections (paragraphs, chapters)&lt;br&gt;&lt;/td&gt;&lt;/tr&gt;&lt;/tbody&gt;&lt;/table&gt;" style="rounded=0;whiteSpace=wrap;html=1;" parent="1" vertex="1">
          <mxGeometry x="240" y="520" width="120" height="120" as="geometry" />
        </mxCell>
        <mxCell id="o-cLvfTO-st9jqt9Uvxf-6" style="edgeStyle=orthogonalEdgeStyle;rounded=0;orthogonalLoop=1;jettySize=auto;html=1;" edge="1" parent="1" source="o-cLvfTO-st9jqt9Uvxf-1" target="bEkGnUCjJTWDH3iZoQyt-1">
          <mxGeometry relative="1" as="geometry" />
        </mxCell>
        <mxCell id="o-cLvfTO-st9jqt9Uvxf-1" value="web url" style="rounded=0;whiteSpace=wrap;html=1;" vertex="1" parent="1">
          <mxGeometry x="80" y="30" width="120" height="80" as="geometry" />
        </mxCell>
        <mxCell id="o-cLvfTO-st9jqt9Uvxf-5" style="edgeStyle=orthogonalEdgeStyle;rounded=0;orthogonalLoop=1;jettySize=auto;html=1;" edge="1" parent="1" source="o-cLvfTO-st9jqt9Uvxf-2" target="bEkGnUCjJTWDH3iZoQyt-75">
          <mxGeometry relative="1" as="geometry" />
        </mxCell>
        <mxCell id="o-cLvfTO-st9jqt9Uvxf-2" value="web url" style="rounded=0;whiteSpace=wrap;html=1;" vertex="1" parent="1">
          <mxGeometry x="240" y="30" width="120" height="80" as="geometry" />
        </mxCell>
        <mxCell id="o-cLvfTO-st9jqt9Uvxf-4" style="edgeStyle=orthogonalEdgeStyle;rounded=0;orthogonalLoop=1;jettySize=auto;html=1;" edge="1" parent="1" source="o-cLvfTO-st9jqt9Uvxf-3" target="bEkGnUCjJTWDH3iZoQyt-76">
          <mxGeometry relative="1" as="geometry" />
        </mxCell>
        <mxCell id="o-cLvfTO-st9jqt9Uvxf-3" value="web url" style="rounded=0;whiteSpace=wrap;html=1;" vertex="1" parent="1">
          <mxGeometry x="410" y="30" width="120" height="80" as="geometry" />
        </mxCell>
        <mxCell id="o-cLvfTO-st9jqt9Uvxf-7" value="Vector Search (Cosine Similarity)&lt;br&gt;&lt;div&gt;50–200 words (1-2 sentences)&lt;br&gt;&lt;/div&gt;&lt;div&gt;Based on individual sentences or short semantic units&lt;br&gt;&lt;/div&gt;" style="rounded=0;whiteSpace=wrap;html=1;" vertex="1" parent="1">
          <mxGeometry x="400" y="520" width="120" height="120" as="geometry" />
        </mxCell>
      </root>
    </mxGraphModel>
  </diagram>
</mxfile>
